<svg width="463" height="241" xmlns="http://www.w3.org/2000/svg"><g fill="none" fill-rule="evenodd"><path d="M12.433 187.057c-4.359 0-7.332 3.065-7.332 7.465 0 4.34 3.033 7.355 7 7.355 2.361 0 4.47-.83 6.414-2.49v3.62c-1.748 1.25-3.777 1.855-6.167 1.855-3.054 0-5.665-1.025-7.604-2.93-1.948-1.91-3.003-4.56-3.003-7.44 0-2.905 1.055-5.5 3.034-7.435 1.968-1.935 4.55-2.96 7.528-2.96 2.38 0 4.464.695 6.408 2.045l-.166 3.235c-1.833-1.545-3.862-2.32-6.112-2.32M27.75 193c2.827 0 4.253-.33 4.253-2.71 0-2.43-1.37-2.96-4.253-2.96h-.583V193h.583zm-.774 11.34h-3.033v-19.775h4.505c2.13 0 3.716.17 4.942 1.11 1.185.945 1.913 2.485 1.913 4.335 0 3.185-1.557 4.98-4.55 5.345l6.83 8.985h-3.646l-6.604-8.855h-.357v8.855zM40.894 184.567h11.078v2.74h-7.854v4.945h7.854v2.825h-7.854v6.385h7.854v2.875H40.894zM66.789 196.569l-2.03-4.505c-.22-.53-.471-1.245-.753-2.245-.25 1-.497 1.715-.718 2.245l-2.029 4.505h5.53zm1.14 2.68h-7.865l-2.305 5.09h-3.395l9.612-20.55 9.613 20.55h-3.415l-2.245-5.09zM81.723 204.338h-3.23v-17.03h-5.272v-2.74h13.75v2.74h-5.248zM90.892 204.335h3.224v-19.77h-3.224zM100.149 183.796l12.605 12.08c.809.77 1.502 1.575 2.165 2.4v-13.71h2.973v20.545l-12.857-12.3a15.487 15.487 0 0 1-1.913-2.216v13.74h-2.973v-20.54zM142.71 194.215c.024.8.054 1.41.054 1.85 0 5.615-3.39 8.8-9.165 8.8-3.254 0-5.785-.945-7.699-2.875-1.888-1.91-2.913-4.56-2.913-7.495 0-2.985 1.025-5.535 3.034-7.465 1.938-1.88 4.61-2.91 7.578-2.91 3.139 0 5.58 1.14 7.503 3.465l-2.365 1.765c-1.341-1.544-3.004-2.294-5.088-2.294-4.243 0-7.302 2.955-7.302 7.415 0 4.5 3.033 7.52 7.332 7.52 3.717 0 5.947-1.855 5.947-4.785v-.275h-4.776v-2.715h7.86zM6.994 236.593h1.552c2.19 0 3.892-.11 5.303-1.3 1.502-1.27 2.25-3.18 2.25-5.695s-.748-4.425-2.25-5.695c-1.471-1.215-3.299-1.3-5.695-1.3H5.83v13.99h1.165zm-4.389-16.865h4.364c3.712 0 6.58 0 8.99 1.85 2.275 1.745 3.5 4.51 3.5 8.045s-1.225 6.28-3.5 8.02c-2.305 1.765-4.907 1.855-8.131 1.855H2.605v-19.77zM24.557 219.728h11.079v2.735h-7.86v4.955h7.86v2.815h-7.86v6.39h7.86v2.875H24.557zM40.727 219.728h3.224v16.895h7.217v2.875H40.727zM55.235 239.495h3.219V219.73h-3.22zM61.929 219.728h3.36l4.45 10.53c.466 1.11.833 2.13 1.054 3.185.246-1.025.613-2.075 1.075-3.185l4.444-10.53h3.335l-8.854 20.54-8.864-20.54zM83.047 219.728h11.079v2.735h-7.86v4.955h7.86v2.815h-7.86v6.39h7.86v2.875h-11.08zM103.028 228.16c2.822 0 4.249-.33 4.249-2.71 0-2.434-1.366-2.96-4.25-2.96h-.582v5.67h.583zm-.779 11.34h-3.033v-19.774h4.505c2.13 0 3.721.165 4.947 1.11 1.185.94 1.913 2.485 1.913 4.335 0 3.185-1.562 4.98-4.555 5.34l6.835 8.99h-3.646l-6.604-8.855h-.362v8.855zM116.223 239.495h3.225V219.73h-3.225zM125.48 218.952l12.606 12.08c.808.774 1.501 1.58 2.17 2.404v-13.71h2.967v20.545l-12.856-12.304a15.775 15.775 0 0 1-1.914-2.21v13.74h-2.973V218.95zM168.04 229.376c.026.805.056 1.41.056 1.85 0 5.615-3.39 8.795-9.165 8.795-3.25 0-5.776-.94-7.694-2.874-1.884-1.91-2.913-4.56-2.913-7.495 0-2.985 1.03-5.53 3.028-7.46 1.939-1.88 4.61-2.91 7.579-2.91 3.138 0 5.58 1.134 7.503 3.46l-2.366 1.77c-1.34-1.55-2.998-2.295-5.082-2.295-4.249 0-7.302 2.955-7.302 7.41 0 4.505 3.028 7.52 7.332 7.52 3.711 0 5.941-1.845 5.941-4.785v-.275h-4.776v-2.71h7.86z" fill="#B8B8B7"/><path fill="#CAD400" d="M157.334 184.567h11.079v2.74h-7.855v4.945h7.855v2.825h-7.855v6.385h7.855v2.875h-11.079zM170.954 184.567h3.36l4.444 10.535c.473 1.105.834 2.13 1.05 3.18.246-1.025.613-2.075 1.085-3.18l4.444-10.535h3.335l-8.864 20.545-8.854-20.545zM192.072 184.567h11.079v2.74h-7.86v4.945h7.86v2.825h-7.86v6.385h7.86v2.875h-11.079zM208.242 183.796l12.606 12.08c.808.77 1.501 1.575 2.164 2.4v-13.71h2.968v20.545l-12.851-12.3a15.177 15.177 0 0 1-1.914-2.216v13.74h-2.973v-20.54zM238.36 204.338h-3.224v-17.03h-5.273v-2.74h13.745v2.74h-5.248zM248.924 199.196c.472 1.77 1.798 2.705 3.832 2.705 1.938 0 3.134-1.16 3.134-2.93 0-1.93-1.472-2.405-3.526-3.4-3.53-1.715-5.469-3.04-5.469-6.025 0-3.18 2.355-5.42 5.966-5.42 2.943 0 4.972 1.19 5.726 3.265l-2.527 1.29c-.778-1.21-1.692-1.79-2.942-1.79-1.758 0-2.833.995-2.833 2.49 0 1.905 1.557 2.49 3.772 3.51 3.505 1.605 5.137 3.015 5.137 5.865 0 3.67-2.466 6.105-6.584 6.105-3.385 0-5.61-1.605-6.277-4.48l2.591-1.185zM182.67 219.728h11.08v2.735h-7.86v4.955h7.86v2.815h-7.86v6.39h7.86v2.875h-11.08zM203.01 229.156l-5.696-9.435h3.385l2.863 4.84c.281.45.612 1.11 1.054 1.97.307-.61.663-1.245 1.085-1.935l3.028-4.875h3.305l-5.806 9.375 6.248 10.395h-3.556l-3.33-5.61a103.77 103.77 0 0 1-1.054-1.984c-.281.575-.638 1.24-1.085 1.955l-3.475 5.64h-3.41l6.443-10.336zM220.18 227.995c2.973 0 4.47-.33 4.47-2.63 0-2.375-1.472-2.87-4.47-2.87h-.834v5.5h.833zm-1.03 11.5h-3.033v-19.77h4.896c2.019 0 3.636.06 4.972 1.025 1.215.885 1.999 2.515 1.999 4.425 0 1.91-.784 3.565-1.999 4.45-1.336.94-2.953 1-4.972 1h-1.863v8.87zM232.293 219.728h11.08v2.735h-7.85v4.955h7.85v2.815h-7.85v6.39h7.85v2.875h-11.08zM252.274 228.16c2.827 0 4.249-.33 4.249-2.71 0-2.434-1.361-2.96-4.25-2.96h-.582v5.67h.583zm-.779 11.34h-3.023v-19.774h4.5c2.13 0 3.716.165 4.942 1.11 1.185.94 1.913 2.485 1.913 4.335 0 3.185-1.562 4.98-4.555 5.34l6.835 8.99h-3.646l-6.604-8.855h-.362v8.855zM265.476 239.495h3.22V219.73h-3.22zM274.726 219.728h11.079v2.735h-7.855v4.955h7.855v2.815h-7.855v6.39h7.855v2.875h-11.079zM290.901 218.952l12.606 12.08c.808.774 1.501 1.58 2.164 2.404v-13.71h2.973v20.545l-12.856-12.304a15.142 15.142 0 0 1-1.914-2.21v13.74h-2.973V218.95zM324.433 222.218c-4.36 0-7.333 3.06-7.333 7.465 0 4.335 3.029 7.355 6.996 7.355 2.366 0 4.475-.83 6.418-2.49v3.615c-1.747 1.245-3.776 1.86-6.172 1.86-3.048 0-5.665-1.03-7.598-2.93-1.949-1.91-3.003-4.56-3.003-7.445 0-2.905 1.054-5.495 3.028-7.43 1.974-1.94 4.555-2.965 7.528-2.965 2.386 0 4.47.695 6.413 2.045l-.165 3.24c-1.838-1.55-3.862-2.32-6.112-2.32M335.943 219.728h11.08v2.735h-7.86v4.955h7.86v2.815h-7.86v6.39h7.86v2.875h-11.08zM353.56 234.352c.472 1.77 1.798 2.715 3.832 2.715 1.938 0 3.139-1.165 3.139-2.94 0-1.935-1.472-2.4-3.526-3.4-3.535-1.71-5.469-3.035-5.469-6.025 0-3.175 2.355-5.42 5.961-5.42 2.953 0 4.972 1.195 5.73 3.27l-2.53 1.29c-.774-1.215-1.693-1.795-2.944-1.795-1.752 0-2.832.995-2.832 2.49 0 1.915 1.557 2.49 3.777 3.51 3.5 1.61 5.142 3.02 5.142 5.86 0 3.68-2.476 6.115-6.589 6.115-3.385 0-5.614-1.605-6.277-4.485l2.586-1.185z"/><path d="M84.219 11.584c-.353 0-.794.25-1.342.753-.56.506-1.219 1.337-1.974 2.47-.831 1.21-1.686 2.77-2.537 4.685a51.947 51.947 0 0 0-2.338 6.255 74.966 74.966 0 0 0-1.767 7.047 44.903 44.903 0 0 0-.828 7.204v1.006c0 2.358.245 4.44.732 6.25a92.13 92.13 0 0 0 4.565-5.893 35.088 35.088 0 0 0 3.626-6.496c.418-.875.801-2 1.146-3.382.334-1.37.663-2.857.97-4.436.322-1.572.563-3.185.728-4.84a43.95 43.95 0 0 0 .26-4.573v-1.311c-.202-2.816-.62-4.4-1.241-4.739M112 56.63c0 .939-.299 1.795-.874 2.566-.586.771-1.468 1.427-2.652 1.967-.345.138-.667.265-.982.402-.314.134-.636.269-.98.399v-.1c-1.453.469-3.075 1.009-4.88 1.616a78.366 78.366 0 0 1-5.742 1.661c-2.05.503-4.116.939-6.228 1.308-2.112.368-4.17.551-6.16.551-3.047 0-5.78-.428-8.199-1.3-2.15-.883-3.944-2.086-5.389-3.632-1.452-1.538-2.606-3.375-3.484-5.494-.858-2.112-1.48-4.5-1.863-7.156-.383-2.652-.567-5.557-.567-8.716v-.704c0-2.823.276-5.706.82-8.664.571-2.954 1.288-5.81 2.189-8.567a61.135 61.135 0 0 1 3.105-7.756c1.176-2.417 2.387-4.503 3.633-6.25 2.012-2.816 4.048-4.984 6.114-6.493C81.934.756 83.904 0 85.767 0c.487 0 .901.063 1.25.194L86.81.097c2.28.272 4.155 1.613 5.607 4.034 1.445 2.417 2.304 5.975 2.584 10.676.073.402.096.845.096 1.31v1.312c0 3.423-.36 7.085-1.077 10.98-.729 3.9-1.79 7.358-3.17 10.379-1.587 3.493-3.488 6.693-5.696 9.576-2.215 2.887-4.358 5.442-6.424 7.659.337.197.774.417 1.288.648.517.238 1.02.424 1.499.559.345.063.762.119 1.257.152.479.034.927.049 1.341.049 1.518 0 3.182-.15 4.975-.455a68.968 68.968 0 0 0 5.49-1.158 79.352 79.352 0 0 0 5.56-1.613 305.032 305.032 0 0 0 5.325-1.81h-.096a4.285 4.285 0 0 1 1.863-.406c2.154 0 3.599 1.046 4.366 3.125v-.1c.276.469.402 1.009.402 1.616M142.293 17.426c0 .991-.217 1.986-.663 2.977-.454.98-1.155 1.807-2.12 2.473-1.371.852-2.71 1.284-4.02 1.284a8.16 8.16 0 0 1-2.577-.447c-.9-.292-1.712-.808-2.47-1.536-1.311-1.382-1.952-2.933-1.952-4.652 0-.918.236-1.858.705-2.816.484-.959 1.247-1.792 2.28-2.524 1.101-.79 2.435-1.185 4.013-1.185 1.453 0 2.783.395 4.022 1.185h.11c1.788 1.324 2.672 3.072 2.672 5.241m15.724 41.36c-.648.855-1.796 1.39-3.446 1.587-1.037.124-2.39.439-4.075.936a62.341 62.341 0 0 0-5.313 1.832 669.04 669.04 0 0 1-5.1 1.73 56.739 56.739 0 0 1-4.594 1.335c-2.187.527-4.086.794-5.671.794-2.749 0-4.914-.677-6.496-2.026-1.578-1.357-2.813-3.522-3.705-6.481a14.152 14.152 0 0 1-.46-2.528 24.54 24.54 0 0 1-.157-2.918c0-.725.008-1.368.042-1.932a21.93 21.93 0 0 1 .156-1.528c.145-1.518.374-2.996.671-4.455.313-1.445.663-2.831 1.079-4.162-.275-.26-.416-.677-.416-1.273 0-.267.023-.487.061-.655.035-.157.08-.34.157-.534a30.51 30.51 0 0 1 1.39-2.571c.588-.995 1.148-1.748 1.705-2.282.96-.725 2.062-1.083 3.297-1.083.686 0 1.414.132 2.161.391.968.333 1.72.812 2.268 1.434.553.625.827 1.306.827 2.03 0 .589-.103 1.123-.305 1.587-.766 1.313-1.494 3.08-2.226 5.293-.713 2.205-1.14 4.363-1.28 6.477v1.577c0 1.792.14 3.174.419 4.158.4 1.386 1.265 2.074 2.565 2.074h.827c.278 0 .625-.059 1.03-.194.967-.128 2.1-.424 3.407-.885 1.304-.46 2.645-.955 4.021-1.489a134.478 134.478 0 0 1 7.067-2.57c2.367-.795 4.376-1.186 6.03-1.186h.206c1.57 0 2.764.457 3.553 1.386A5.157 5.157 0 0 1 159 55.823v.194c0 .987-.32 1.912-.983 2.768M201.48 47.165c-.997 2.565-2.228 5.426-3.628 8.589-1.394 3.162-2.78 5.926-4.139 8.278-2.654 4.65-5.588 6.968-8.782 6.968-3.127 0-6.027-2.117-8.689-6.363-.544-1.008-1.114-2.184-1.74-3.532a58.35 58.35 0 0 1-1.628-4.045 47.897 47.897 0 0 1-1.88-7.722 214.71 214.71 0 0 1-1.182-8.144c-.34-.325-.559-.762-.665-1.3a9.407 9.407 0 0 1-.147-1.62v-1.206c0-.205.015-.317.053-.359.03-.03.053-.03.094 0 .03.042.053-.01.053-.145.14-.344.208-.538.208-.613v-.4c.264-1.549.86-2.695 1.79-3.434A4.785 4.785 0 0 1 174.305 31h.196c1.035.07 1.949.44 2.768 1.117.82.668 1.326 1.848 1.526 3.532.075 1.012.177 2.24.31 3.69.131 1.444.34 2.994.619 4.645.268 1.65.57 3.35.913 5.108a38.96 38.96 0 0 0 1.337 5.045h-.102c.196.732.457 1.497.767 2.27.294.777.619 1.4.966 1.875v-.109c.676 1.083 1.084 1.617 1.224 1.617.207-.063.419-.183.664-.347.242-.168.529-.56.869-1.161a71.903 71.903 0 0 0 3.674-7.077 121.351 121.351 0 0 0 3.171-7.684c-.615-.803-.925-1.812-.925-3.021 0-2.293 1.22-3.903 3.682-4.851.611-.332 1.329-.5 2.144-.5 1.02 0 1.903.268 2.651.802.759.546 1.333 1.177 1.74 1.924.273.067 1.402 3.035-1.019 9.29M315.85 45.212c-.337 0-.698-.034-1.085-.095a2.409 2.409 0 0 1-1.092-.516h.103c-.928-.406-1.621-.611-2.078-.611h-.59c-.202 0-.362.026-.501.099-.916.132-2.037.41-3.351.815a34.884 34.884 0 0 0-4.1 1.594 62.885 62.885 0 0 0-4.34 2.205 65.063 65.063 0 0 0-4.1 2.467c-1.91 1.233-3.231 2.466-3.95 3.696-.53.888-.855 1.692-.993 2.41-.135.724-.256 1.525-.39 2.413v-.102c-.129 1.502-.629 2.622-1.483 3.335A4.48 4.48 0 0 1 284.932 64c-1.117 0-2.11-.398-3.008-1.18-.876-.79-1.37-1.962-1.435-3.537a25.86 25.86 0 0 1-.098-2.06V50.14c0-1.575.043-3.055.098-4.459.066-1.404.164-2.652.3-3.753-.526-.334-.789-.892-.789-1.643 0-.478.164-.952.49-1.434a21.55 21.55 0 0 0 1.584-3.382v.1c.328-.961.843-1.636 1.533-1.997a4.558 4.558 0 0 1 2.216-.573c.131 0 .372.038.693.099.336.072.69.106 1.085.106.726.277 1.383.729 1.982 1.385.584.649.89 1.45.89 2.414 0 .14-.021.273-.058.413a1.507 1.507 0 0 0-.047.406c-.201.76-.358 1.746-.493 2.983a61.03 61.03 0 0 0-.292 3.389c.128-.069.226-.118.292-.167.062-.03.164-.11.292-.254.135-.133.307-.232.507-.304 1.373-1.028 2.987-2.03 4.834-3.028a61.295 61.295 0 0 1 5.673-2.672c1.95-.782 3.851-1.457 5.728-1.996 1.873-.55 3.577-.858 5.089-.926h.401c1.311 0 2.494.205 3.549.622 1.048.403 1.84.809 2.37 1.226 1.116.888 1.682 2.015 1.682 3.381 0 1.17-.307 2.194-.898 3.09h.099c-.855 1.362-1.975 2.045-3.352 2.045M237.311 132.692a4.48 4.48 0 0 1-2.585 1.03c-.343 0-.656-.065-.93-.207.14.142.125.176-.054.103a5.793 5.793 0 0 0-.66-.207c-.484.138-1.14.296-1.96.469-.828.173-1.728.36-2.681.572-.969.215-1.96.446-2.994.723-1.037.292-2.036.557-2.993.834-2.476.968-4.813 1.464-7.018 1.464-1.788 0-3.466-.323-5.053-.942-1.586-.619-3.024-1.694-4.34-3.224-1.647-1.867-2.928-4.054-3.859-6.551a83.783 83.783 0 0 1-2.532-8.1c-.343-1.046-.717-1.568-1.125-1.568-.969 0-2.658.872-5.057 2.605-.484.273-1.178.81-2.063 1.61-.9.792-1.9 1.745-2.994 2.855a122.202 122.202 0 0 0-3.352 3.54 86.83 86.83 0 0 0-3.25 3.742 5.585 5.585 0 0 1-2.12 1.767 6.262 6.262 0 0 1-2.734.619 6.07 6.07 0 0 1-2.78-.676c-.893-.446-1.579-1.122-2.07-2.025a22.474 22.474 0 0 1-1.393-3.274c-.377-1.141-.736-2.237-1.08-3.274h.096a101.08 101.08 0 0 0-1.018-2.809c-.359-.895-.717-1.833-1.133-2.801v.104c-.21-.354-.454-.527-.724-.527a.754.754 0 0 0-.32.054.633.633 0 0 1-.306.058c-.892.203-1.853.93-2.887 2.178a27.747 27.747 0 0 1-2.578 3.228c-.968 1.03-1.96 2.144-2.986 3.324a25.952 25.952 0 0 0-2.265 2.594 49.716 49.716 0 0 0-3.577 4.472 94.002 94.002 0 0 0-2.628 3.95c-.545.896-1.25 1.557-2.116 1.976-.855.415-1.66.622-2.43.622-.4 0-.808-.035-1.22-.104a3.314 3.314 0 0 1-1.148-.415h.107c-1.99-.976-3.047-2.64-3.196-4.987a100.8 100.8 0 0 1-.255-6.137 429.21 429.21 0 0 1-.05-6.648c0-2.843.015-5.529.05-8.057.03-2.533.114-4.558.255-6.08.202-1.594.782-2.758 1.705-3.488.93-.73 2.01-1.084 3.257-1.084h.198c1.17 0 2.227.4 3.196 1.195.96.795 1.437 1.883 1.437 3.266v.311c-.133 1.941-.228 3.978-.305 6.08-.072 2.117-.095 4.219-.095 6.293v2.295c.267-.354.542-.684.82-.992.275-.315.587-.638.93-.995.69-.76 1.392-1.556 2.106-2.382.732-.834 1.475-1.703 2.22-2.598l1.452-1.771c1.24-1.522 2.78-2.963 4.634-4.312 1.86-1.356 3.726-2.202 5.579-2.551.267-.062.545-.1.828-.1h.93c1.438 0 2.792.4 4.073 1.195 1.259.795 2.384 2.202 3.352 4.207.343.976.725 1.972 1.14 3.017.405 1.045.775 2.01 1.118 2.913.21.826.416 1.417.625 1.763.141.142.141.212 0 .212l.416-.212c.622-.622 1.32-1.333 2.124-2.136a96.1 96.1 0 0 1 2.422-2.386c.812-.8 1.624-1.557 2.414-2.283.79-.73 1.495-1.372 2.113-1.921 4.889-4.093 9.08-6.133 12.588-6.133h.21c4.058 0 6.704 2.763 7.948 8.312a49.525 49.525 0 0 0 2.01 7.227c.85 2.383 1.803 4.208 2.83 5.457.762.83 1.647 1.245 2.688 1.245.888 0 1.788-.17 2.685-.519a78.539 78.539 0 0 1 3.863-1.195c1.342-.384 2.673-.768 4.03-1.149a49.579 49.579 0 0 1 3.814-.93c1.198-.242 2.212-.403 3.048-.469h.602c.969 0 1.781.123 2.437.358.644.242 1.25.61 1.792 1.095v-.104c.969.83 1.461 1.84 1.461 3.017 0 .903-.32 1.767-.946 2.593v-.1c-.393.627-.984 1.25-1.743 1.88M298.955 112.653c.03 1.02.045 2.13.045 3.364 0 2.984-.133 6.479-.409 10.474a356.276 356.276 0 0 1-1.071 12.525c-.45 4.335-3.987 25.272-4.657 29.655-.697 4.365-1.435 8.417-2.256 12.153-.273 1.362-.867 2.4-1.746 3.107-.886.715-1.877 1.069-2.964 1.069-.348 0-.69-.064-1.037-.203v.098a5.097 5.097 0 0 1-2.647-1.419c-.76-.752-1.14-1.772-1.14-3.059 0-.342.016-.594.054-.76.038-.169.087-.39.155-.658.814-3.055 1.514-6.483 2.101-10.283.576-3.8 4.028-24.24 4.407-28.18.375-3.931.678-7.776.924-11.546.234-3.766.39-7.179.458-10.226v-.407c0-.21-.068-.308-.208-.308-.197 0-.443.049-.708.15-.28.098-.489.256-.629.463a152.8 152.8 0 0 1-4.089 3.657 559.81 559.81 0 0 1-5.11 4.376 155.94 155.94 0 0 1-5.392 4.33c-1.802 1.388-3.46 2.558-4.96 3.51-3.41 2.239-6.655 3.356-9.733 3.356-1.158 0-2.253-.165-3.275-.508-1.026-.346-2.048-.91-3.066-1.73-.954-.745-1.86-1.814-2.67-3.206-.813-1.384-1.256-3.24-1.332-5.545 0-1.63.25-3.394.761-5.294a39.01 39.01 0 0 1 1.953-5.49c.792-1.768 1.632-3.393 2.56-4.894.924-1.49 1.756-2.683 2.514-3.56v.106c1.15-1.422 2.529-2.137 4.088-2.137 1.026 0 1.81.17 2.367.508a6.663 6.663 0 0 1 1.832 1.678c.48.647.72 1.373.72 2.19 0 .951-.474 2.073-1.428 3.352a54.154 54.154 0 0 0-1.798 2.656 29.045 29.045 0 0 0-1.791 3.254 33.494 33.494 0 0 0-1.39 3.402c-.37 1.12-.552 2.125-.552 3.01 0 .538.094.985.31 1.32.197.339.413.613.606.82.14.064.295.132.466.2.162.064.318.098.458.098 1.022 0 2.218-.475 3.585-1.426 1.916-1.22 3.926-2.668 6.042-4.32a189.37 189.37 0 0 0 6.402-5.29 248.5 248.5 0 0 0 6.345-5.703 491.643 491.643 0 0 0 5.782-5.448c1.238-1.29 2.812-1.934 4.72-1.934.746 0 1.492.128 2.253.418.947.398 1.806 1.046 2.567 1.93.738.88 1.22 2.103 1.427 3.66.068.75.118 1.626.156 2.645M333.216 82.583c-.345 0-.794.253-1.35.756-.544.506-1.21 1.33-1.965 2.469-.832 1.206-1.679 2.77-2.537 4.685-.87 1.922-1.64 3.996-2.338 6.25a70.833 70.833 0 0 0-1.76 7.05 44.387 44.387 0 0 0-.83 7.198v1.01c0 2.357.24 4.432.727 6.25a90.056 90.056 0 0 0 4.557-5.896 34.219 34.219 0 0 0 3.633-6.496c.418-.879.793-1.992 1.146-3.374.341-1.378.67-2.856.97-4.435.314-1.58.563-3.188.735-4.838.173-1.643.26-3.173.26-4.585V87.32c-.21-2.82-.628-4.395-1.248-4.737M361 127.62c0 .935-.291 1.796-.881 2.566-.587.775-1.46 1.43-2.637 1.967-.353.138-.682.264-.989.398-.306.142-.644.272-.996.41v-.108c-1.437.477-3.066 1.013-4.863 1.616a74.593 74.593 0 0 1-5.757 1.661c-2.035.507-4.1.939-6.22 1.311a35.644 35.644 0 0 1-6.158.559c-3.047 0-5.78-.443-8.197-1.318-2.143-.868-3.944-2.079-5.389-3.624-1.46-1.538-2.613-3.378-3.483-5.49-.859-2.119-1.48-4.499-1.863-7.15-.383-2.656-.567-5.564-.567-8.723v-.704c0-2.815.276-5.701.828-8.659a68.074 68.074 0 0 1 2.18-8.565 61.082 61.082 0 0 1 3.112-7.75c1.177-2.425 2.388-4.503 3.626-6.254 2.004-2.826 4.039-4.987 6.12-6.491C330.93 71.756 332.909 71 334.77 71c.487 0 .901.063 1.242.201l-.2-.1c2.273.268 4.14 1.612 5.592 4.026 1.46 2.417 2.319 5.98 2.595 10.68.061.4.1.842.1 1.312v1.31c0 3.423-.353 7.088-1.085 10.987-.736 3.889-1.775 7.345-3.17 10.372-1.586 3.49-3.48 6.686-5.702 9.568-2.207 2.887-4.35 5.441-6.423 7.654.337.204.782.428 1.295.655.525.238 1.027.425 1.514.559.33.063.755.115 1.242.149.479.037.927.048 1.349.048 1.517 0 3.173-.145 4.966-.45a70.592 70.592 0 0 0 5.496-1.159 81.672 81.672 0 0 0 5.538-1.616c1.835-.6 3.625-1.207 5.354-1.814h-.112a4.346 4.346 0 0 1 1.87-.402c2.139 0 3.591 1.043 4.358 3.125v-.097c.276.465.41 1.002.41 1.612M390.876 97.495c0-.201-.029-.421-.097-.656-.064-.24-.132-.418-.182-.556-.14-.135-.398-.205-.785-.205-.323 0-.677.085-1.071.253-.39.176-.742.325-1.064.455h.093c-.706.403-1.584 1.18-2.612 2.325-1.104 1.145-2.168 2.492-3.196 4.033a23.472 23.472 0 0 0-2.526 4.944c1.222-.403 2.44-.9 3.63-1.508a22.083 22.083 0 0 0 3.353-2.074 14.728 14.728 0 0 0 2.658-2.518c.75-.91 1.247-1.836 1.52-2.773v.09c.182-.799.279-1.41.279-1.81M412 120.001c0 .806-.23 1.582-.67 2.317-.462.75-1.197 1.287-2.232 1.615h.097c-.523.206-1.072.403-1.652.605-.58.209-1.222.477-1.938.813-1.358.537-2.888 1.138-4.604 1.814a71.533 71.533 0 0 1-5.428 1.872 56.244 56.244 0 0 1-5.958 1.41c-2.071.37-4.135.553-6.206.553-1.748 0-3.357-.134-4.843-.403-2.902-.403-5.231-1.545-6.976-3.432-2.4-2.355-3.59-5.384-3.59-9.078 0-.675.029-1.332.1-1.978.061-.63.162-1.257.287-1.861.648-3.84 1.727-7.231 3.246-10.193 1.526-2.963 3.031-5.452 4.514-7.474 3.1-3.973 5.815-6.559 8.137-7.771h-.097c.903-.534 1.974-.974 3.196-1.306a14.169 14.169 0 0 1 3.78-.504c1.805 0 3.36.433 4.66 1.31 1.412.876 2.401 2.048 2.946 3.533.552 1.481.835 3.063.835 4.738 0 1.821-.197 3.44-.584 4.85-.58 2.083-1.638 4.071-3.146 5.955a29.206 29.206 0 0 1-5.335 5.097 30.687 30.687 0 0 1-6.585 3.73c-2.365.978-4.64 1.598-6.843 1.874 0 1.007.294 1.832.874 2.474.58.638 1.358 1.022 2.325 1.156.971.265 2.071.403 3.297.403 2.973 0 6.094-.537 9.354-1.612 3.26-1.074 6.22-2.123 8.868-3.13a76.03 76.03 0 0 0 2.565-1.011 30.463 30.463 0 0 1 2.178-.813c.197-.06.39-.109.58-.146.205-.03.456-.052.785-.052.831 0 1.559.254 2.182.753a6 6 0 0 1 1.49 1.87v-.105c.266.541.391 1.254.391 2.127M242.873 16.496c0-.205-.03-.425-.09-.656a5.807 5.807 0 0 0-.19-.56c-.14-.127-.39-.202-.778-.202-.33 0-.684.094-1.078.258-.376.16-.742.313-1.057.459h.1c-.72.395-1.584 1.171-2.626 2.313a30.78 30.78 0 0 0-3.197 4.041 24.409 24.409 0 0 0-2.519 4.944c1.23-.406 2.44-.91 3.63-1.515a21.421 21.421 0 0 0 3.347-2.07 15.038 15.038 0 0 0 2.666-2.523c.749-.91 1.247-1.832 1.512-2.78v.105c.19-.806.28-1.414.28-1.814M264 39.004c0 .806-.222 1.578-.67 2.324-.448.74-1.197 1.273-2.225 1.609h.09c-.517.205-1.065.403-1.653.608-.573.198-1.218.47-1.931.806-1.358.537-2.895 1.149-4.612 1.817a70.918 70.918 0 0 1-5.425 1.873 55.568 55.568 0 0 1-5.956 1.41 35.958 35.958 0 0 1-6.206.549c-1.742 0-3.361-.13-4.852-.396-2.895-.403-5.228-1.552-6.97-3.436-2.393-2.358-3.59-5.384-3.59-9.078 0-.68.029-1.34.104-1.978.057-.634.154-1.254.283-1.866.649-3.832 1.734-7.231 3.254-10.194 1.519-2.955 3.017-5.444 4.508-7.47 3.1-3.97 5.808-6.56 8.145-7.769h-.104c.895-.537 1.967-.977 3.196-1.32a14.794 14.794 0 0 1 3.78-.493c1.814 0 3.365.437 4.655 1.31 1.42.877 2.415 2.052 2.967 3.533.53 1.482.814 3.064.814 4.74 0 1.813-.19 3.44-.584 4.846-.574 2.086-1.638 4.075-3.147 5.955-1.512 1.888-3.304 3.59-5.328 5.097a30.585 30.585 0 0 1-6.593 3.732c-2.366.981-4.64 1.608-6.83 1.877 0 1 .286 1.828.867 2.466.573.642 1.358 1.026 2.318 1.164.971.269 2.079.41 3.304.41 2.967 0 6.095-.548 9.35-1.626 3.26-1.075 6.227-2.112 8.875-3.127.91-.332 1.763-.672 2.566-1.011.806-.332 1.533-.601 2.186-.803a4.86 4.86 0 0 1 .573-.156c.197-.03.455-.049.777-.049.839 0 1.566.25 2.183.754a5.94 5.94 0 0 1 1.505 1.87v-.098c.25.534.376 1.243.376 2.12M458.496 94.513c-1.357 0-2.756-.463-4.186-1.4-.88 0-2.034.189-3.43.548a45.19 45.19 0 0 0-4.348 1.407c-1.501.57-2.961 1.2-4.394 1.896-1.433.708-2.666 1.419-3.687 2.16-1.373.936-2.076 1.74-2.148 2.406.14.467.753.996 1.838 1.596.556.274 1.085.526 1.58.756.526.23 1.056.485 1.596.748 1.358.74 2.776 1.473 4.24 2.2 1.47.74 2.983 1.706 4.556 2.91 1.641 1.337 2.813 2.94 3.532 4.81.707 1.866 1.07 3.74 1.07 5.606 0 1.94-.318 3.844-.976 5.714a25.226 25.226 0 0 1-2.4 5.11c-1.763 2.596-3.847 5.059-6.233 7.362-2.393 2.3-5.286 4.388-8.693 6.255-1.449.936-3.139 1.403-5.124 1.403-1.906 0-3.604-.393-5.105-1.2-1.168-.6-1.978-1.333-2.458-2.207-.48-.866-.726-1.733-.726-2.596 0-.34.06-.722.163-1.151.105-.437.215-.86.363-1.256.34-.737.828-1.34 1.478-1.8.647-.47 1.445-.707 2.405-.707.548 0 1.067.07 1.532.2.472.137.987.4 1.542.804.265.267.605.396 1.01.396.556 0 .998-.13 1.339-.396a37.933 37.933 0 0 0 6.182-4.758c1.948-1.837 3.457-3.626 4.557-5.359.753-1 1.24-1.955 1.475-2.855.246-.9.363-1.822.363-2.759v-.396c0-1.196-.443-2.233-1.331-3.107-1.093-.936-2.496-1.855-4.24-2.755a91.14 91.14 0 0 0-5.883-2.751c-.28-.133-.496-.24-.658-.307a8.22 8.22 0 0 1-.68-.293c-2.38-.937-4.194-2.174-5.42-3.714-1.221-1.53-1.834-3.17-1.834-4.903 0-1.67.628-3.377 1.891-5.11 1.263-1.737 3.154-3.407 5.672-5.01h-.094c1.225-.867 2.696-1.763 4.447-2.696a43.148 43.148 0 0 1 5.524-2.507c1.94-.74 3.97-1.374 6.085-1.907 2.114-.533 4.16-.83 6.13-.9h.31c1.372 0 2.609.233 3.728.704 1.13.462 2.004 1.096 2.617 1.892v-.093c.892 1 1.327 2.067 1.327 3.203 0 1.011-.337 2-1.017 3.004-.82 1.203-1.982 1.803-3.487 1.803M31.121 49.771c0-1.792-.744-3.294-2.212-4.503h-6.567c-1.669 0-3.066-.306-4.213-.912-1.143-.607-1.778-1.447-1.909-2.525-.053.083-.158.107-.282.107-.13.075-.226.115-.29.115l-.19.103c-1.14.927-2.37 2.378-3.67 4.352-1.308 1.963-2.155 4.159-2.533 6.585-.194 1.293-.29 2.323-.29 3.112 0 1.431.227 2.506.668 3.22.889 1.355 2.269 2.037 4.114 2.037h.759c1.584 0 2.985-.139 4.195-.428a20.694 20.694 0 0 0 3.345-1.075c1.528-.705 2.988-1.716 4.39-3.005a25.98 25.98 0 0 0 3.729-4.293c.617-.78.956-1.748.956-2.89m12.3-6.6c-.384.757-.977 1.308-1.81 1.66-.317.147-.698.234-1.147.27-.44.044-.928.1-1.432.167.642 1.435.96 3.072.96 4.923 0 1.225-.209 2.581-.628 4.084-.413 1.502-1.193 2.969-2.33 4.392-1.728 2.212-3.52 4.17-5.398 5.847-1.88 1.685-3.856 3.021-5.96 4.02a23.836 23.836 0 0 1-5.638 1.828c-1.909.357-3.976.57-6.2.638h-.476C7.63 71 3.72 68.927 1.627 64.788.529 62.853 0 60.312 0 57.168c0-1.93.183-3.924.572-6.001.825-4.294 2.395-8.084 4.728-11.374 2.321-3.283 5.035-5.788 8.158-7.5h-.096C14.707 31.427 16.125 31 17.664 31c1.52 0 3.045.65 4.565 1.935.575-.218 1.25-.33 2.015-.33.565 0 1.101.08 1.627.223 1.065.146 2.17.523 3.285 1.125 1.104.607 2.082 1.269 2.91 1.987h7.354c1.274 0 2.357.487 3.243 1.439.889.967 1.337 2.065 1.337 3.274v.214c0 .793-.19 1.554-.579 2.303M262.196 66.684c-.598.912-1.62 1.54-3.053 1.886-.847.193-1.875.378-3.055.55-1.2.19-2.478.351-3.843.497-1.463.166-2.946.332-4.482.5-1.546.17-3.044.294-4.508.351a68.478 68.478 0 0 0-4.114.32c-1.188.13-2.311.254-3.332.373-1.615.177-2.636.335-3.064.481-.34.039-.752.266-1.225.697a1.832 1.832 0 0 1-.549.485c-.2.116-.382.231-.537.35l.118-.015c-.564.432-1.316.701-2.247.813-1.116.119-2.17-.139-3.177-.778l.008.139c-1.309-.986-2.008-2.137-2.133-3.446-.008-.08 0-.235.023-.427.026-.185.034-.324.026-.424.431-2.872 2.107-4.755 5.038-5.64l-.125.012c.665-.262 1.535-.486 2.587-.647a91.111 91.111 0 0 1 3.782-.485c1.626-.177 3.358-.343 5.2-.505 1.838-.158 3.752-.296 5.722-.423a185.69 185.69 0 0 0 4.572-.289 170.03 170.03 0 0 0 6.09-.612c.692-.08 1.248-.181 1.66-.323l.767-.085c1.377-.154 2.463.15 3.26.912.806.755 1.264 1.648 1.343 2.672l.038.285c.08.928-.178 1.852-.79 2.776" fill="#CBD200"/></g></svg>