<svg viewBox="0 0 571 201" xmlns="http://www.w3.org/2000/svg" fill-rule="evenodd" clip-rule="evenodd" stroke-linejoin="round" stroke-miterlimit="1.414">
  <circle cx="534.585" cy="36.6" r="36.6"/>
  <path d="M534.585 7.215c-16.215 0-29.4 13.192-29.4 29.4 0 15.645 12.225 28.538 27.832 29.362l.435.023 13.073-37.575c.015-.03.322-.78.892-.78h1.83v-5.092h-4.327c-2.108 0-3.038 2.16-3.053 2.205l-6.922 20.25-7.935-22.455h-6.038l11.108 30.142-2.79 8.16-.038-.007c-11.28-2.483-19.47-12.668-19.47-24.225 0-13.673 11.13-24.803 24.803-24.803 13.68 0 24.81 11.123 24.81 24.803 0 7.2-3.15 14.055-8.64 18.795l-.405.345 2.685 3.75.48-.405c6.653-5.633 10.47-13.83 10.47-22.493 0-16.215-13.185-29.4-29.4-29.4z" fill="#fff" fill-rule="nonzero"/>
  <path d="M13.2 164.318C5.152 164.317.472 159.09.277 158.872L0 158.565l4.703-8.228.772.6c.51.563 3.307 3.405 7.2 3.405 3.698 0 6.817-2.595 8.82-7.32l2.325-5.542L5.745 99.585c-.585-1.335-1.253-1.748-2.828-1.748h-1.83v-9.854h6.556c4.507 0 6.322 1.274 8.092 5.714l12.068 29.918c.584 1.515 1.094 3.285 1.447 4.59.315-1.313.795-3.075 1.38-4.583l11.018-29.925c1.627-4.335 3.637-5.722 8.31-5.722h6.667v9.855h-1.943c-1.582 0-2.242.412-2.834 1.747l-21 51.878c-3.241 8.175-9.676 12.862-17.648 12.862zM85.852 143.513c-16.695-.001-28.807-11.933-28.807-28.396 0-16.717 11.212-28.395 27.247-28.395 14.04 0 23.46 10.23 23.46 25.455 0 1.373-.315 4.148-.322 4.26l-.045.51H68.722c.923 11.468 9.488 16.605 17.67 16.605 8.798 0 15.083-5.97 15.135-6.03l.525-.502 5.018 8.242-.323.323c-.33.322-8.197 7.927-20.895 7.927zm-16.62-35.152h26.843c-.488-7.553-5.115-12.405-11.895-12.405-7.65 0-13.328 4.725-14.948 12.405zM135.255 142.26h-10.657c-5.033 0-7.29-2.25-7.29-7.282v-56.4c0-1.2-.533-1.733-1.733-1.733h-4.882v-9.862h10.657c5.04 0 7.283 2.242 7.283 7.29v56.392c0 1.2.547 1.74 1.755 1.74h4.867v9.855zM160.778 142.26h-10.665c-5.033 0-7.283-2.25-7.283-7.282v-56.4c0-1.2-.54-1.733-1.748-1.733h-4.875v-9.862h10.643c5.047 0 7.297 2.242 7.297 7.29v56.392c0 1.2.54 1.74 1.733 1.74h4.882v9.855h.015zM192.54 143.513c-16.605-.001-29.137-12.248-29.137-28.508 0-16.118 12.532-28.29 29.137-28.29 16.673 0 29.243 12.165 29.243 28.29-.008 16.267-12.571 28.507-29.243 28.507zm0-46.83c-10.035 0-17.602 7.883-17.602 18.323 0 10.575 7.567 18.548 17.602 18.548 10.095 0 17.708-7.973 17.708-18.548 0-10.44-7.613-18.323-17.708-18.323zM319.268 164.318c-8.033-.001-12.736-5.228-12.931-5.446l-.262-.307 4.77-8.243.705.623c.517.562 3.308 3.405 7.192 3.405 3.69 0 6.825-2.595 8.82-7.32l2.318-5.543-18.06-41.895c-.585-1.335-1.268-1.747-2.85-1.747h-2.61c-1.628 0-2.31.427-2.7 1.702l-14.1 42.713h-12.285l-.135-.398-11.025-34.132a69.447 69.447 0 0 1-1.02-3.833 64.582 64.582 0 0 1-1.028 3.825l-11.055 34.53H240.63L226.537 99.54c-.412-1.282-1.087-1.702-2.715-1.702h-2.047v-9.855h6.982c5.033 0 7.013 1.417 8.415 6.067l9.458 31.613c.375 1.222.652 2.489.877 3.51.255-1.028.593-2.296.968-3.518l11.573-37.47h10.192l11.677 37.47c.36 1.17.668 2.385.893 3.375.202-.99.487-2.197.855-3.375l9.337-31.597c1.418-4.658 3.405-6.075 8.535-6.075h12.165c4.508 0 6.323 1.275 8.1 5.715l12.068 29.917c.585 1.515 1.102 3.285 1.44 4.59.322-1.313.81-3.075 1.387-4.582l11.018-29.926c1.62-4.334 3.652-5.722 8.31-5.722h6.66v9.855h-1.943c-1.582 0-2.235.413-2.835 1.747l-21 51.878c-3.232 8.175-9.66 12.863-17.64 12.863zM392.243 143.513c-16.598-.001-29.123-12.248-29.123-28.508 0-16.118 12.517-28.29 29.123-28.29 16.672 0 29.242 12.165 29.242 28.29 0 16.267-12.57 28.507-29.243 28.507zm0-46.83c-10.027 0-17.595 7.883-17.595 18.323 0 10.575 7.568 18.548 17.595 18.548 10.088 0 17.708-7.973 17.708-18.548-.008-10.44-7.62-18.323-17.708-18.323z" fill-rule="nonzero"/>
  <path d="M434.018 164.318c-8.033-.001-12.721-5.228-12.908-5.446l-.27-.307 4.732-8.333.743.713c.502.562 3.315 3.405 7.2 3.405 3.69 0 6.81-2.595 8.82-7.32l2.317-5.543-18.067-41.895c-.593-1.335-1.252-1.747-2.843-1.747h-1.837V87.99h6.562c4.5 0 6.308 1.275 8.093 5.715l12.075 29.917c.585 1.515 1.102 3.285 1.44 4.59.322-1.312.802-3.075 1.387-4.582l11.018-29.925c1.62-4.335 3.652-5.723 8.303-5.723h6.675v9.855h-1.943c-1.59 0-2.243.413-2.843 1.748l-21 51.877c-3.255 8.168-9.682 12.855-17.654 12.855zM507 143.513c-16.605-.001-29.13-12.248-29.13-28.508 0-16.118 12.525-28.29 29.13-28.29 16.68 0 29.25 12.165 29.25 28.29 0 16.267-12.57 28.507-29.25 28.507zm0-46.83c-10.027 0-17.58 7.883-17.58 18.323 0 10.575 7.553 18.548 17.58 18.548 10.095 0 17.707-7.973 17.707-18.548 0-10.44-7.605-18.323-17.707-18.323zM74.13 181.365h5.88c2.73 0 4.703.397 5.917 1.192 1.215.795 1.823 2.048 1.823 3.765 0 1.155-.3 2.115-.892 2.888-.6.765-1.455 1.252-2.573 1.447v.135c1.395.263 2.415.78 3.067 1.553.653.772.983 1.815.983 3.135 0 1.778-.623 3.172-1.86 4.177-1.245 1.005-2.97 1.508-5.182 1.508h-7.155v-19.8h-.008zm3.24 8.183h3.12c1.357 0 2.347-.218 2.97-.645.623-.428.938-1.155.938-2.19-.001-.93-.338-1.605-1.013-2.018-.675-.412-1.74-.622-3.203-.622h-2.805l.001 5.475h-.008zm0 2.625v6.277h3.442c1.358 0 2.378-.262 3.068-.78.69-.517 1.035-1.342 1.035-2.46 0-1.027-.353-1.792-1.058-2.287-.704-.495-1.777-.743-3.209-.743H77.37v-.007zM96.383 193.26v7.913h-3.24v-19.808h5.595c2.557 0 4.447.48 5.677 1.433 1.23.959 1.845 2.407 1.845 4.334 0 2.468-1.282 4.223-3.847 5.273l5.595 8.767h-3.683l-4.74-7.912h-3.202zm0-2.685h2.25c1.507 0 2.602-.278 3.277-.84.675-.563 1.02-1.388 1.02-2.49 0-1.117-.367-1.927-1.095-2.415-.727-.488-1.83-.735-3.307-.735H96.39v6.48h-.007zM123.87 201.173l-1.98-5.505h-7.575l-1.935 5.505h-3.412l7.41-19.89h3.524l7.41 19.889h-3.442zm-2.835-8.295l-1.86-5.392c-.135-.36-.322-.93-.562-1.71-.24-.78-.405-1.343-.495-1.71-.248 1.11-.6 2.325-1.073 3.645l-1.792 5.168h5.782zM147.12 201.173h-3.968l-9.742-15.788h-.105l.067.877c.128 1.681.188 3.218.188 4.606v10.297h-2.94v-19.807h3.93l9.712 15.704h.083c-.015-.209-.053-.967-.113-2.272a83.497 83.497 0 0 1-.082-3.053v-10.38h2.97v19.815zM169.163 191.077c0 3.271-.908 5.768-2.723 7.5-1.815 1.733-4.432 2.595-7.845 2.595h-5.542v-19.807h6.127c3.15 0 5.602.847 7.358 2.55 1.747 1.695 2.625 4.08 2.625 7.162zm-3.421.113c0-4.74-2.22-7.118-6.652-7.118h-2.805v14.378h2.302c4.77 0 7.155-2.423 7.155-7.26zM179.535 188.378c0-.66.173-1.163.518-1.516.344-.352.839-.532 1.492-.532.66 0 1.163.18 1.508.548.344.367.517.862.517 1.5 0 .645-.173 1.147-.525 1.522-.345.375-.847.563-1.5.563s-1.147-.188-1.492-.555c-.353-.368-.518-.878-.518-1.53zM203.333 183.855c-1.861 0-3.323.66-4.388 1.98-1.065 1.32-1.597 3.142-1.597 5.46 0 2.43.51 4.267 1.537 5.512 1.028 1.246 2.513 1.868 4.455 1.868.84 0 1.65-.083 2.438-.255a26.948 26.948 0 0 0 2.452-.645v2.775c-1.552.585-3.315.878-5.287.878-2.903 0-5.13-.878-6.683-2.633s-2.333-4.267-2.333-7.537c0-2.063.375-3.863 1.133-5.408.757-1.545 1.845-2.73 3.27-3.547 1.425-.818 3.105-1.23 5.025-1.23 2.025 0 3.892.42 5.61 1.275l-1.163 2.692a17.312 17.312 0 0 0-2.122-.833 7.815 7.815 0 0 0-2.347-.352zM213.188 201.173l-.001-19.808h3.24v17.032h8.385v2.775h-11.625zM241.215 201.173l-1.98-5.505h-7.575l-1.935 5.505h-3.413l7.411-19.89h3.524l7.41 19.889h-3.442zm-2.835-8.295l-1.86-5.392c-.135-.36-.322-.93-.562-1.71-.24-.78-.405-1.343-.495-1.71-.248 1.11-.6 2.325-1.073 3.645l-1.792 5.168h5.782zM251.205 193.26v7.913h-3.24v-19.808h5.595c2.558 0 4.447.48 5.678 1.433 1.229.959 1.844 2.407 1.844 4.334 0 2.468-1.282 4.223-3.847 5.273l5.595 8.767h-3.69l-4.74-7.912h-3.195zm0-2.685h2.25c1.507 0 2.602-.278 3.277-.84.675-.563 1.02-1.388 1.02-2.49 0-1.117-.367-1.927-1.094-2.415-.736-.488-1.83-.735-3.308-.735h-2.138v6.48h-.007zM266.393 181.365h3.24v19.808h-3.24zM282.398 201.173h-3.24V184.14h-5.828v-2.775h14.895v2.775h-5.827v17.033zM297.555 190.402l4.688-9.037h3.524l-6.6 12.127v7.68h-3.254v-7.575l-6.57-12.24h3.525l4.687 9.045zM314.498 188.378c0-.66.172-1.163.517-1.516.345-.352.84-.532 1.493-.532.659 0 1.162.18 1.5.548.344.367.517.862.517 1.5 0 .645-.173 1.147-.525 1.522-.345.375-.848.563-1.5.563s-1.147-.188-1.493-.555c-.337-.368-.51-.878-.51-1.53zM329.873 181.365h5.88c2.729 0 4.702.397 5.917 1.192 1.215.795 1.822 2.048 1.822 3.765 0 1.155-.299 2.115-.892 2.888-.593.765-1.455 1.252-2.572 1.447v.135c1.394.263 2.415.78 3.067 1.553.652.772.982 1.815.982 3.135 0 1.778-.622 3.172-1.86 4.177-1.245 1.005-2.97 1.508-5.182 1.508h-7.155v-19.8h-.007zm3.24 8.183h3.112c1.358 0 2.347-.218 2.97-.645.622-.428.937-1.155.937-2.19 0-.93-.337-1.605-1.012-2.018-.675-.412-1.74-.622-3.203-.622h-2.805v5.475zm0 2.625v6.277h3.443c1.357 0 2.377-.262 3.067-.78.69-.517 1.035-1.342 1.035-2.46 0-1.027-.352-1.792-1.057-2.287-.705-.495-1.778-.743-3.21-.743h-3.278v-.007zM364.417 181.365v12.817c0 1.463-.315 2.745-.945 3.84-.63 1.095-1.537 1.943-2.722 2.535-1.185.593-2.61.885-4.26.885-2.46 0-4.365-.652-5.73-1.95-1.365-1.297-2.048-3.09-2.048-5.37v-12.765h3.255v12.533c0 1.635.383 2.842 1.14 3.615.758.78 1.928 1.162 3.495 1.162 3.053 0 4.583-1.605 4.583-4.807v-12.51h3.232v.015zM381.6 195.795c0 1.762-.638 3.142-1.913 4.147-1.275 1.005-3.029 1.508-5.272 1.508-2.243 0-4.072-.345-5.505-1.043v-3.059c.9.427 1.867.757 2.88 1.004 1.02.248 1.965.368 2.842.368 1.283 0 2.228-.24 2.835-.728.608-.487.916-1.14.916-1.965 0-.742-.278-1.365-.841-1.882-.562-.517-1.717-1.125-3.472-1.83-1.808-.735-3.082-1.567-3.817-2.505-.743-.937-1.111-2.07-1.111-3.39 0-1.657.585-2.955 1.763-3.9 1.17-.945 2.752-1.425 4.725-1.425 1.897 0 3.787.413 5.662 1.245l-1.027 2.64c-1.763-.742-3.338-1.11-4.718-1.11-1.05 0-1.845.225-2.385.683-.54.457-.81 1.057-.81 1.807 0 .518.105.953.323 1.32.217.368.577.713 1.072 1.035.495.323 1.395.758 2.685 1.29 1.455.608 2.52 1.17 3.203 1.695.675.525 1.17 1.118 1.492 1.778.316.645.473 1.425.473 2.317zM386.13 181.365h3.24v19.808h-3.24zM411.795 201.173h-3.967l-9.743-15.788h-.112l.067.877c.128 1.681.188 3.218.188 4.606v10.297h-2.94v-19.807h3.93l9.712 15.704h.083c-.015-.209-.053-.967-.113-2.272a83.497 83.497 0 0 1-.082-3.053v-10.38h2.97v19.815h.007zM428.925 201.173H417.72v-19.808h11.205v2.737h-7.965v5.393h7.462v2.707h-7.462v6.218h7.965v2.753zM445.32 195.795c0 1.762-.638 3.142-1.912 4.147-1.276 1.005-3.03 1.508-5.273 1.508-2.242 0-4.072-.345-5.505-1.043v-3.059c.9.427 1.868.757 2.88 1.004 1.02.248 1.965.368 2.843.368 1.282 0 2.227-.24 2.834-.728.608-.487.916-1.14.916-1.965 0-.742-.278-1.365-.841-1.882-.562-.517-1.717-1.125-3.464-1.83-1.808-.735-3.083-1.567-3.818-2.505-.743-.937-1.11-2.07-1.11-3.39 0-1.657.585-2.955 1.762-3.9 1.17-.945 2.753-1.425 4.725-1.425 1.898 0 3.788.413 5.663 1.245l-1.028 2.64c-1.762-.742-3.337-1.11-4.717-1.11-1.05 0-1.845.225-2.385.683-.54.457-.81 1.057-.81 1.807 0 .518.105.953.322 1.32.218.368.578.713 1.073 1.035.495.323 1.395.758 2.685 1.29 1.455.608 2.52 1.17 3.195 1.695.675.525 1.17 1.118 1.492 1.778.315.645.473 1.425.473 2.317zM461.272 195.795c0 1.762-.637 3.142-1.912 4.147-1.275 1.005-3.03 1.508-5.272 1.508-2.243 0-4.073-.345-5.505-1.043v-3.059a14.98 14.98 0 0 0 2.88 1.004c1.019.248 1.965.368 2.842.368 1.283 0 2.228-.24 2.835-.728.607-.487.915-1.14.915-1.965 0-.742-.278-1.365-.84-1.882-.563-.517-1.718-1.125-3.465-1.83-1.808-.735-3.083-1.567-3.818-2.505-.742-.937-1.11-2.07-1.11-3.39 0-1.657.585-2.955 1.763-3.9 1.17-.945 2.752-1.425 4.725-1.425 1.897 0 3.787.413 5.662 1.245l-1.027 2.64c-1.763-.742-3.338-1.11-4.718-1.11-1.05 0-1.845.225-2.385.683-.54.457-.81 1.057-.81 1.807 0 .518.105.953.323 1.32.217.368.577.713 1.072 1.035.495.323 1.395.758 2.685 1.29 1.455.608 2.52 1.17 3.203 1.695.675.525 1.17 1.118 1.492 1.778.308.645.465 1.425.465 2.317z" fill-rule="nonzero"/>
</svg>
